# xmcd
#
# Track frame offsets: 
#        150
#        29400
#        51078
#        75193
#        90103
#        108938
#        132405
#        159618
#
# Disc length: 2532 seconds
#
# Revision: 2
# Processed by: cddbd v1.5.1PL0 Copyright (c) Steve Scherf et al.
# Submitted via: ExactAudioCopy v0.95b2
#
DISCID=5209e208
DTITLE=Gap Band - Gap Band IV
DYEAR=1900
DGENRE=
TTITLE0=Early in the Morning
TTITLE1=Seasons No Reason to Change
TTITLE2=Lonely Like Me
TTITLE3=Outstanding
TTITLE4=Stay with Me
TTITLE5=You Dropped a Bomb on Me
TTITLE6=I Can't Get Over You
TTITLE7=Talkin' Back
EXTD=
EXTT0=
EXTT1=
EXTT2=
EXTT3=
EXTT4=
EXTT5=
EXTT6=
EXTT7=
PLAYORDER=
